<svg width="17" height="17" viewBox="0 0 17 17" fill="none" xmlns="http://www.w3.org/2000/svg">
<path fill-rule="evenodd" clip-rule="evenodd" d="M3.34375 4.53796L3.8563 10.6239C3.8937 11.0923 4.27705 11.4436 4.74541 11.4436H4.74881H14.0232H14.0249C14.4677 11.4436 14.846 11.1143 14.9089 10.6773L15.7164 5.11159C15.7351 4.97922 15.7019 4.84684 15.6212 4.73992C15.5413 4.63215 15.424 4.56257 15.2914 4.5439C15.1137 4.55069 7.74167 4.54051 3.34375 4.53796ZM4.74722 12.7162C3.62777 12.7162 2.68001 11.8438 2.58906 10.728L1.81046 1.4837L0.529505 1.26308C0.181854 1.20198 -0.0501969 0.873587 0.00930333 0.526523C0.0705036 0.17946 0.406255 -0.0462578 0.746256 0.00805037L2.51426 0.313534C2.79901 0.363599 3.01576 0.5995 3.04042 0.888012L3.24017 3.26484C15.3748 3.26993 15.4139 3.27587 15.4726 3.28266C15.946 3.3514 16.3625 3.59833 16.6464 3.97849C16.9303 4.35779 17.0493 4.82535 16.9813 5.29376L16.1747 10.8586C16.0225 11.9177 15.1011 12.7162 14.0301 12.7162H14.0259H4.75402H4.74722Z" fill="#222222"/>
<path fill-rule="evenodd" clip-rule="evenodd" d="M12.6656 7.67421H10.3094C9.95663 7.67421 9.67188 7.3891 9.67188 7.03779C9.67188 6.68648 9.95663 6.40137 10.3094 6.40137H12.6656C13.0175 6.40137 13.3031 6.68648 13.3031 7.03779C13.3031 7.3891 13.0175 7.67421 12.6656 7.67421Z" fill="#222222"/>
<path fill-rule="evenodd" clip-rule="evenodd" d="M4.38513 15.0215C4.64098 15.0215 4.84753 15.228 4.84753 15.4839C4.84753 15.7397 4.64098 15.9471 4.38513 15.9471C4.12843 15.9471 3.92188 15.7397 3.92188 15.4839C3.92188 15.228 4.12843 15.0215 4.38513 15.0215Z" fill="#222222"/>
<mask id="mask0_150_136" style="mask-type:luminance" maskUnits="userSpaceOnUse" x="3" y="15" width="2" height="1">
<path fill-rule="evenodd" clip-rule="evenodd" d="M3.91406 15.4829C3.91406 15.7396 4.12061 15.947 4.37816 15.947C4.63402 15.947 4.84057 15.7396 4.84057 15.4829C4.84057 15.2271 4.63402 15.0205 4.37816 15.0205C4.12061 15.0205 3.91406 15.2271 3.91406 15.4829Z" fill="white"/>
</mask>
<g mask="url(#mask0_150_136)">
<path fill-rule="evenodd" clip-rule="evenodd" d="M-0.335938 20.1871H9.08975V10.7773H-0.335938V20.1871Z" fill="#222222"/>
</g>
<path fill-rule="evenodd" clip-rule="evenodd" d="M4.3777 15.3093C4.28165 15.3093 4.20345 15.3875 4.20345 15.4836C4.20345 15.6765 4.5528 15.6765 4.5528 15.4836C4.5528 15.3875 4.47375 15.3093 4.3777 15.3093ZM4.38115 16.5817C3.77425 16.5817 3.28125 16.0887 3.28125 15.4828C3.28125 14.8769 3.77425 14.3848 4.38115 14.3848C4.98806 14.3848 5.48191 14.8769 5.48191 15.4828C5.48191 16.0887 4.98806 16.5817 4.38115 16.5817Z" fill="#222222"/>
<path fill-rule="evenodd" clip-rule="evenodd" d="M13.9711 15.0215C14.2269 15.0215 14.4343 15.228 14.4343 15.4839C14.4343 15.7397 14.2269 15.9471 13.9711 15.9471C13.7144 15.9471 13.5078 15.7397 13.5078 15.4839C13.5078 15.228 13.7144 15.0215 13.9711 15.0215Z" fill="#222222"/>
<mask id="mask1_150_136" style="mask-type:luminance" maskUnits="userSpaceOnUse" x="13" y="15" width="2" height="1">
<path fill-rule="evenodd" clip-rule="evenodd" d="M13.5078 15.4829C13.5078 15.7396 13.7144 15.947 13.9711 15.947C14.2261 15.947 14.4343 15.7396 14.4343 15.4829C14.4343 15.2271 14.2261 15.0205 13.9711 15.0205C13.7144 15.0205 13.5078 15.2271 13.5078 15.4829Z" fill="white"/>
</mask>
<g mask="url(#mask1_150_136)">
<path fill-rule="evenodd" clip-rule="evenodd" d="M9.25781 20.1873H18.6843V10.7776H9.25781V20.1873Z" fill="#222222"/>
</g>
<path fill-rule="evenodd" clip-rule="evenodd" d="M13.971 15.3095C13.8758 15.3095 13.7976 15.3877 13.7976 15.4838C13.7985 15.6784 14.147 15.6767 14.1461 15.4838C14.1461 15.3877 14.0671 15.3095 13.971 15.3095ZM13.9671 16.5817C13.3602 16.5817 12.8672 16.0887 12.8672 15.4828C12.8672 14.8769 13.3602 14.3848 13.9671 14.3848C14.5748 14.3848 15.0687 14.8769 15.0687 15.4828C15.0687 16.0887 14.5748 16.5817 13.9671 16.5817Z" fill="#222222"/>
</svg>
