<svg width="18" height="15" viewBox="0 0 18 15" fill="none" xmlns="http://www.w3.org/2000/svg">
<path fill-rule="evenodd" clip-rule="evenodd" d="M9.00585 5.06824C7.80884 5.06824 6.83594 6.0404 6.83594 7.23538C6.83594 8.42946 7.80884 9.40073 9.00585 9.40073C10.2029 9.40073 11.1767 8.42946 11.1767 7.23538C11.1767 6.0404 10.2029 5.06824 9.00585 5.06824ZM9.0043 10.7482C7.06299 10.7482 5.48438 9.17221 5.48438 7.23508C5.48438 5.29705 7.06299 3.72021 9.0043 3.72021C10.9456 3.72021 12.5251 5.29705 12.5251 7.23508C12.5251 9.17221 10.9456 10.7482 9.0043 10.7482Z" fill="#222222"/>
<mask id="mask0_150_159" style="mask-type:luminance" maskUnits="userSpaceOnUse" x="0" y="0" width="18" height="15">
<path fill-rule="evenodd" clip-rule="evenodd" d="M0 0H18V14.4701H0V0Z" fill="white"/>
</mask>
<g mask="url(#mask0_150_159)">
<path fill-rule="evenodd" clip-rule="evenodd" d="M1.41406 7.23464C3.08808 10.9265 5.9078 13.1215 9.00112 13.1224C12.0944 13.1215 14.9142 10.9265 16.5882 7.23464C14.9142 3.54367 12.0944 1.34868 9.00112 1.34778C5.9087 1.34868 3.08808 3.54367 1.41406 7.23464ZM9.00164 14.4703H8.99804H8.99714C5.27471 14.4676 1.93209 11.8629 0.0546754 7.50073C-0.0182251 7.33091 -0.0182251 7.13864 0.0546754 6.96883C1.93209 2.60759 5.27561 0.00288103 8.99714 0.000185582C8.99894 -0.000712902 8.99894 -0.000712902 8.99984 0.000185582C9.00164 -0.000712902 9.00164 -0.000712902 9.00254 0.000185582C12.725 0.00288103 16.0676 2.60759 17.945 6.96883C18.0188 7.13864 18.0188 7.33091 17.945 7.50073C16.0685 11.8629 12.725 14.4676 9.00254 14.4703H9.00164Z" fill="#222222"/>
</g>
</svg>
