<svg width="147" height="36" viewBox="0 0 147 36" fill="none" xmlns="http://www.w3.org/2000/svg">
<path d="M41.0579 19.6891C38.2331 22.2924 34.3922 24.009 30.4043 24.6186V36H38.9533C43.5225 36 47.261 32.2619 47.261 27.6924C47.261 23.8432 44.6302 20.6032 41.0579 19.6891ZM23.5369 24.9232C22.9 24.9232 22.2908 24.7847 21.7367 24.5078C20.9059 24.0924 20.2136 23.4278 19.7985 22.5693C19.3863 21.6633 19.2072 20.3788 19.1336 19.3845C14.5563 19.5117 11.0195 23.2481 11.0195 27.6924C11.0195 32.3493 14.837 36 19.3272 36H27.6351V24.8955C27.3861 24.9232 27.1366 24.9232 26.8874 24.9232H23.5369Z" fill="#FF3D00"/>
<path d="M26.7769 1.52306C25.5864 2.43719 24.4787 3.5169 23.5095 4.73535C21.4603 7.25533 20.0757 10.191 19.4385 13.2922C17.3893 10.5507 16.2539 7.22763 16.2539 3.71103V1.3846C16.2539 0.608937 16.8634 0 17.6385 0H19.9649C22.3465 0 24.6726 0.52615 26.7769 1.52306Z" fill="#228800"/>
<path d="M42.9211 0H39.2103C33.9211 0 28.9916 2.35383 25.6686 6.45254C22.3874 10.549 21.2229 15.5941 22.0686 20.2986C22.5902 19.7773 31.1594 11.2081 30.875 11.4925C31.3732 10.9387 32.315 10.9384 32.8134 11.4925C33.3673 11.9904 33.3676 12.9322 32.8134 13.4307C32.5328 13.711 23.7428 22.5016 24.0904 22.154C30.1097 22.154 35.6966 21.71 40.3457 16.1725C42.9213 13.0433 44.3059 9.19377 44.3059 5.09563V1.3846C44.3057 0.608937 43.6967 0 42.9211 0Z" fill="#228800"/>
<path d="M11.9062 19.4678C9.66288 21.4893 8.25087 24.4244 8.25087 27.6924C8.25087 30.5724 9.35855 33.3142 11.325 35.3354C10.3558 35.7231 9.33086 35.9172 8.30626 35.9172C6.17368 35.9172 4.03619 35.1141 2.42976 33.5077C-0.809921 30.2677 -0.809921 24.9783 2.42976 21.7383L8.33395 15.8399L11.9062 19.4678Z" fill="#FF3D00"/>
<path d="M18.6902 16.6429C17.0837 16.7263 15.5607 17.1694 14.2317 17.8617L10.2715 13.9014L14.453 9.71992C15.3394 12.2956 16.7517 14.6771 18.6902 16.6429Z" fill="#FF3D00"/>
<path d="M65.0213 31.352C63.1866 31.352 61.7253 31.0107 60.6373 30.328C59.5493 29.6453 58.7706 28.664 58.3013 27.384C57.832 26.104 57.5973 24.5893 57.5973 22.84V13.144C57.5973 11.3947 57.832 9.90133 58.3013 8.664C58.7706 7.40533 59.5493 6.44533 60.6373 5.784C61.7253 5.12266 63.1866 4.792 65.0213 4.792C66.8986 4.792 68.3706 5.12266 69.4373 5.784C70.5253 6.44533 71.304 7.40533 71.7733 8.664C72.264 9.90133 72.5093 11.3947 72.5093 13.144V22.872C72.5093 24.6 72.264 26.104 71.7733 27.384C71.304 28.6427 70.5253 29.624 69.4373 30.328C68.3706 31.0107 66.8986 31.352 65.0213 31.352ZM65.0213 27.864C65.8106 27.864 66.3866 27.6933 66.7493 27.352C67.1333 27.0107 67.3893 26.5413 67.5173 25.944C67.6453 25.3467 67.7093 24.696 67.7093 23.992V12.056C67.7093 11.3307 67.6453 10.68 67.5173 10.104C67.3893 9.528 67.1333 9.08 66.7493 8.76C66.3866 8.41867 65.8106 8.248 65.0213 8.248C64.2746 8.248 63.7093 8.41867 63.3253 8.76C62.9413 9.08 62.6853 9.528 62.5573 10.104C62.4293 10.68 62.3653 11.3307 62.3653 12.056V23.992C62.3653 24.696 62.4186 25.3467 62.5253 25.944C62.6533 26.5413 62.9093 27.0107 63.2933 27.352C63.6773 27.6933 64.2533 27.864 65.0213 27.864ZM74.0055 31L79.2215 17.24L74.1655 5.08H78.5815L81.9415 13.112L84.8855 5.08H88.9815L83.9895 18.136L89.3655 31H84.9495L81.2695 22.296L78.0695 31H74.0055ZM91.7343 31V5.08H96.4063V31H91.7343ZM100.419 31V5.08H103.715L110.019 19.864V5.08H113.923V31H110.787L104.451 15.512V31H100.419ZM117.856 31V5.08H128.736V8.408H122.592V15.864H127.424V19.16H122.592V27.736H128.8V31H117.856ZM129.912 31L135.128 17.24L130.072 5.08H134.488L137.848 13.112L140.792 5.08H144.888L139.896 18.136L145.272 31H140.856L137.176 22.296L133.976 31H129.912Z" fill="#1A1A1A"/>
</svg>
