<svg width="48" height="36" viewBox="0 0 48 36" fill="none" xmlns="http://www.w3.org/2000/svg">
<path d="M41.0579 19.6891C38.2331 22.2924 34.3922 24.009 30.4043 24.6186V36H38.9533C43.5225 36 47.261 32.2619 47.261 27.6924C47.261 23.8432 44.6302 20.6032 41.0579 19.6891ZM23.5369 24.9232C22.9 24.9232 22.2908 24.7847 21.7367 24.5078C20.9059 24.0924 20.2136 23.4278 19.7985 22.5693C19.3863 21.6633 19.2072 20.3788 19.1336 19.3845C14.5563 19.5117 11.0195 23.2481 11.0195 27.6924C11.0195 32.3493 14.837 36 19.3272 36H27.6351V24.8955C27.3861 24.9232 27.1366 24.9232 26.8874 24.9232H23.5369Z" fill="#FF3D00"/>
<path d="M26.7769 1.52306C25.5864 2.43719 24.4787 3.5169 23.5095 4.73535C21.4603 7.25533 20.0757 10.191 19.4385 13.2922C17.3893 10.5507 16.2539 7.22763 16.2539 3.71103V1.3846C16.2539 0.608937 16.8634 0 17.6385 0H19.9649C22.3465 0 24.6726 0.52615 26.7769 1.52306Z" fill="#228800"/>
<path d="M42.9211 0H39.2103C33.9211 0 28.9916 2.35383 25.6686 6.45254C22.3874 10.549 21.2229 15.5941 22.0686 20.2986C22.5902 19.7773 31.1594 11.2081 30.875 11.4925C31.3732 10.9387 32.315 10.9384 32.8134 11.4925C33.3673 11.9904 33.3676 12.9322 32.8134 13.4307C32.5328 13.711 23.7428 22.5016 24.0904 22.154C30.1097 22.154 35.6966 21.71 40.3457 16.1725C42.9213 13.0433 44.3059 9.19377 44.3059 5.09563V1.3846C44.3057 0.608937 43.6967 0 42.9211 0Z" fill="#228800"/>
<path d="M11.9062 19.4678C9.66288 21.4893 8.25087 24.4244 8.25087 27.6924C8.25087 30.5724 9.35855 33.3142 11.325 35.3354C10.3558 35.7231 9.33086 35.9172 8.30626 35.9172C6.17368 35.9172 4.03619 35.1141 2.42976 33.5077C-0.809921 30.2677 -0.809921 24.9783 2.42976 21.7383L8.33395 15.8399L11.9062 19.4678Z" fill="#FF3D00"/>
<path d="M18.6902 16.6429C17.0837 16.7263 15.5607 17.1694 14.2317 17.8617L10.2715 13.9014L14.453 9.71992C15.3394 12.2956 16.7517 14.6771 18.6902 16.6429Z" fill="#FF3D00"/>
</svg>
