<svg width="1920" height="230" viewBox="0 0 1920 230" fill="none" xmlns="http://www.w3.org/2000/svg">
<rect width="1920" height="230" fill="url(#paint0_linear_168_301)"/>
<mask id="mask0_168_301" style="mask-type:alpha" maskUnits="userSpaceOnUse" x="0" y="0" width="1920" height="230">
<rect width="1920" height="230" fill="#AB0C2F"/>
</mask>
<g mask="url(#mask0_168_301)">
<circle cx="153" cy="-3" r="185.5" stroke="white" stroke-opacity="0.2"/>
<path d="M195 -46.5C238.904 -46.5 274.5 -10.6857 274.5 33.5C274.5 77.6857 238.904 113.5 195 113.5C151.096 113.5 115.5 77.6857 115.5 33.5C115.5 -10.6857 151.096 -46.5 195 -46.5Z" stroke="white" stroke-opacity="0.2"/>
<path opacity="0.7" d="M1425.79 341.501C1548.92 282.121 1694.77 135.052 1328.59 227.021C962.405 318.99 1416.45 116.26 1574.27 -24.9355C1737.98 -171.36 782.901 18.4821 804.054 168.602C825.208 318.722 1201.9 167.44 1168.41 -123.73" stroke="#9D3619" stroke-width="100" stroke-linecap="square"/>
<path d="M1531.17 120.462L1468.7 58C1466.88 58.1657 1465.06 58.497 1463.24 58.9941L1530.17 126.095C1530.5 124.272 1530.83 122.45 1531.17 120.462Z" fill="white" fill-opacity="0.2"/>
<path d="M1514.93 74.2366C1509.79 69.1005 1503.83 65.1242 1497.2 62.3076L1527.02 92.1301C1524.21 85.3372 1520.07 79.3727 1514.93 74.2366Z" fill="white" fill-opacity="0.2"/>
<path d="M1435.24 153.93C1440.37 159.066 1446.34 163.042 1452.97 165.859L1423.14 136.036C1425.96 142.829 1430.1 148.794 1435.24 153.93Z" fill="white" fill-opacity="0.2"/>
<path d="M1508.3 159.562L1429.44 80.6982C1428.61 81.858 1427.62 83.1835 1426.79 84.5089L1504.33 162.047C1505.82 161.385 1507.14 160.556 1508.3 159.562Z" fill="white" fill-opacity="0.2"/>
<path d="M1487.09 169.172L1419.99 102.071C1419.66 103.894 1419.33 105.716 1419 107.539L1481.46 170C1483.28 169.835 1485.27 169.669 1487.09 169.172Z" fill="white" fill-opacity="0.2"/>
<path d="M1523.21 143.491L1445.67 65.9521C1444.35 66.7806 1443.02 67.6089 1441.86 68.603L1520.73 147.467C1521.56 146.142 1522.38 144.816 1523.21 143.491Z" fill="white" fill-opacity="0.2"/>
</g>
<defs>
<linearGradient id="paint0_linear_168_301" x1="20.5" y1="115" x2="1920" y2="140" gradientUnits="userSpaceOnUse">
<stop stop-color="#933115"/>
<stop offset="1" stop-color="#8D280B"/>
</linearGradient>
</defs>
</svg>
