<svg width="223" height="13" viewBox="0 0 223 13" fill="none" xmlns="http://www.w3.org/2000/svg">
<path fill-rule="evenodd" clip-rule="evenodd" d="M5.34864 1H1.88185C1.64459 1 1.44282 1.17307 1.40576 1.4083L0.00362661 10.3339C-0.0242031 10.5101 0.11168 10.6688 0.289591 10.6688H1.94461C2.18187 10.6688 2.38364 10.4959 2.4207 10.2602L2.79881 7.85275C2.8353 7.61709 3.03749 7.44402 3.27433 7.44402H4.37176C6.65536 7.44402 7.97329 6.33445 8.31762 4.13583C8.47267 3.17381 8.32415 2.41808 7.87546 1.88874C7.38276 1.30751 6.50883 1 5.34864 1ZM5.74822 4.26005C5.55866 5.50905 4.60819 5.50905 3.68924 5.50905H3.16602L3.53306 3.17642C3.55492 3.03543 3.67646 2.93164 3.81845 2.93164H4.05827C4.6843 2.93164 5.27483 2.93164 5.57996 3.2899C5.76199 3.50361 5.81765 3.82124 5.74822 4.26005Z" fill="white"/>
<path fill-rule="evenodd" clip-rule="evenodd" d="M15.7993 4.15194H14.1392C13.9978 4.15194 13.8755 4.25572 13.8538 4.39672L13.7802 4.8629L13.6642 4.69396C13.3049 4.17019 12.5033 3.99512 11.7035 3.99512C9.86888 3.99512 8.30204 5.39025 7.99691 7.34722C7.83831 8.32335 8.06378 9.25686 8.61541 9.9078C9.12131 10.5063 9.84517 10.7558 10.7063 10.7558C12.1846 10.7558 13.0041 9.80145 13.0041 9.80145L12.9302 10.2646C12.9023 10.4417 13.0382 10.6005 13.2151 10.6005H14.7104C14.9482 10.6005 15.149 10.4274 15.1865 10.1918L16.0837 4.48682C16.1121 4.31118 15.9767 4.15194 15.7993 4.15194ZM13.4861 7.39507C13.3259 8.34725 12.5732 8.98651 11.6131 8.98651C11.1311 8.98651 10.7458 8.83125 10.4984 8.53715C10.253 8.24503 10.1598 7.82917 10.2378 7.36599C10.3875 6.42193 11.1528 5.76172 12.0983 5.76172C12.5697 5.76172 12.9529 5.91911 13.2054 6.21564C13.4582 6.51545 13.5586 6.93388 13.4861 7.39507Z" fill="white"/>
<path fill-rule="evenodd" clip-rule="evenodd" d="M24.5142 4.29492H22.8458C22.6866 4.29492 22.5371 4.37433 22.4469 4.5072L20.146 7.91005L19.1707 4.63993C19.1094 4.43535 18.9214 4.29492 18.7084 4.29492H17.0691C16.8698 4.29492 16.7315 4.49038 16.7948 4.6787L18.6324 10.093L16.9049 12.5417C16.769 12.7345 16.9058 12.9997 17.1406 12.9997H18.8068C18.965 12.9997 19.1129 12.9223 19.2026 12.7921L24.7513 4.75041C24.8842 4.55809 24.7477 4.29492 24.5142 4.29492Z" fill="white"/>
<path fill-rule="evenodd" clip-rule="evenodd" d="M30.0751 1H26.6078C26.3711 1 26.1694 1.17307 26.1323 1.4083L24.7302 10.3339C24.7024 10.5101 24.8382 10.6688 25.0152 10.6688H26.7944C26.9595 10.6688 27.101 10.5478 27.1268 10.3828L27.5248 7.85275C27.5613 7.61709 27.7636 7.44402 28.0003 7.44402H29.0973C31.3814 7.44402 32.6989 6.33445 33.0436 4.13583C33.1992 3.17381 33.0497 2.41808 32.601 1.88874C32.1088 1.30751 31.2354 1 30.0751 1ZM30.4762 4.26005C30.287 5.50905 29.3366 5.50905 28.417 5.50905H27.8945L28.262 3.17642C28.2837 3.03543 28.4044 2.93164 28.5468 2.93164H28.7866C29.4121 2.93164 30.0032 2.93164 30.3083 3.2899C30.4904 3.50361 30.5456 3.82124 30.4762 4.26005Z" fill="white"/>
<path fill-rule="evenodd" clip-rule="evenodd" d="M40.5256 4.15194H38.8665C38.724 4.15194 38.6029 4.25572 38.5816 4.39672L38.5081 4.8629L38.3915 4.69396C38.0321 4.17019 37.2312 3.99512 36.4312 3.99512C34.5967 3.99512 33.0305 5.39025 32.7253 7.34722C32.5671 8.32335 32.7916 9.25686 33.3431 9.9078C33.8502 10.5063 34.5729 10.7558 35.4342 10.7558C36.9123 10.7558 37.732 9.80145 37.732 9.80145L37.658 10.2646C37.6302 10.4417 37.7659 10.6005 37.944 10.6005H39.4388C39.6755 10.6005 39.8773 10.4274 39.9143 10.1918L40.812 4.48682C40.8394 4.31118 40.7035 4.15194 40.5256 4.15194ZM38.2104 7.39507C38.0512 8.34725 37.2974 8.98651 36.3373 8.98651C35.8562 8.98651 35.47 8.83125 35.2225 8.53715C34.9773 8.24503 34.885 7.82917 34.962 7.36599C35.1126 6.42193 35.877 5.76172 36.8225 5.76172C37.2939 5.76172 37.6771 5.91911 37.9295 6.21564C38.1834 6.51545 38.2838 6.93388 38.2104 7.39507Z" fill="white"/>
<path fill-rule="evenodd" clip-rule="evenodd" d="M42.3425 1.24535L40.9196 10.3344C40.8918 10.5106 41.0276 10.6692 41.2045 10.6692H42.635C42.8728 10.6692 43.0745 10.4963 43.111 10.2606L44.5141 1.33545C44.5421 1.15924 44.4062 1 44.2293 1H42.6275C42.4861 1.00043 42.3644 1.10436 42.3425 1.24535Z" fill="white"/>
<path d="M91.7769 11.8273H88.5508L90.5686 0.210938H93.7946L91.7769 11.8273Z" fill="white"/>
<path d="M103.47 0.494552C102.834 0.259513 101.825 0 100.577 0C97.391 0 95.1475 1.58171 95.1337 3.84309C95.1073 5.51152 96.74 6.43822 97.9612 6.99452C99.2093 7.56299 99.6336 7.93403 99.6336 8.44073C99.6209 9.21894 98.625 9.57766 97.6962 9.57766C96.4082 9.57766 95.718 9.39272 94.6692 8.95976L94.2444 8.77416L93.793 11.3818C94.5496 11.7027 95.9437 11.9875 97.391 12C100.776 12 102.98 10.4428 103.006 8.0329C103.019 6.71054 102.157 5.69729 100.298 4.86931C99.1696 4.3378 98.4786 3.97941 98.4786 3.43559C98.4918 2.9412 99.063 2.43482 100.337 2.43482C101.386 2.41002 102.156 2.64473 102.74 2.87961L103.032 3.00296L103.47 0.494552Z" fill="white"/>
<path d="M111.743 0.211914L114.346 11.8281H111.358C111.358 11.8247 111.066 10.4936 110.974 10.0859H106.832C106.712 10.3952 106.154 11.8281 106.154 11.8281H102.77L107.562 1.17578C107.894 0.42188 108.479 0.211914 109.248 0.211914H111.743ZM109.05 4.46387C109.042 4.48473 108.026 7.04924 107.762 7.71387H110.443C110.311 7.13308 109.699 4.35254 109.699 4.35254L109.475 3.35156C109.316 3.78339 109.037 4.48649 109.05 4.46387Z" fill="white"/>
<path d="M79.7627 0.211914C80.4662 0.236387 81.0379 0.446566 81.2236 1.18848L82.3516 6.52734C82.3501 6.52374 82.3481 6.5202 82.3467 6.5166C82.3477 6.51994 82.3495 6.52303 82.3506 6.52637L82.6963 8.13281L85.8555 0.211914H89.2666L84.1963 11.8154H80.7842L77.9082 1.72168C76.9165 1.18206 75.7848 0.74753 74.5195 0.446289L74.5723 0.211914H79.7627Z" fill="white"/>
<path d="M213.337 2.53223C214.712 2.53227 216.01 3.798 216.018 6.12109C216.018 8.66042 214.736 9.81439 213.329 9.81445C212.637 9.81445 212.22 9.51785 211.938 9.30957L211.93 11.5762L209.965 12.001V2.66016H211.694L211.796 3.15723C212.071 2.90088 212.567 2.53223 213.337 2.53223ZM201.207 2.66797H202.7V4.37402H201.207V7.21875C201.207 8.40352 202.448 8.0359 202.7 7.93164V9.55762C202.441 9.70176 201.969 9.82222 201.325 9.82227C200.162 9.82227 199.289 8.94833 199.289 7.7627L199.297 1.34668L201.215 0.929688L201.207 2.66797ZM196.57 2.53125C197.223 2.53125 197.867 2.63522 198.52 2.89941V4.78223C197.922 4.45392 197.168 4.26953 196.57 4.26953C196.154 4.26961 195.902 4.38985 195.902 4.70215C195.902 5.59936 198.897 5.17529 198.905 7.5625C198.905 8.99608 197.781 9.82123 196.146 9.82129C195.471 9.82129 194.732 9.68459 194.001 9.36426V7.45801C194.661 7.82639 195.494 8.09863 196.146 8.09863C196.586 8.0986 196.9 7.97858 196.9 7.61035C196.9 6.65707 193.914 7.00883 193.914 4.79785C193.914 3.38034 194.975 2.5314 196.57 2.53125ZM219.374 2.53223C221.237 2.53245 222.211 4.15054 222.211 6.20117C222.211 6.39332 222.195 6.80961 222.195 6.91406H218.352C218.438 7.85936 219.115 8.13184 219.877 8.13184C220.655 8.1318 221.268 7.96375 221.803 7.69141V9.29395C221.268 9.59836 220.56 9.81445 219.625 9.81445C217.707 9.81439 216.371 8.5966 216.371 6.18555C216.371 4.15075 217.503 2.53223 219.374 2.53223ZM205.146 3.26074C205.609 2.39589 206.528 2.57181 206.78 2.66797V4.51074C206.536 4.42263 205.751 4.3101 205.287 4.92676V9.67773H203.322V2.66797H205.021L205.146 3.26074ZM209.234 9.67773H207.262V2.66797H209.234V9.67773ZM212.865 4.31055C212.417 4.31055 212.134 4.47081 211.93 4.70312L211.938 7.6748C212.126 7.88309 212.401 8.05176 212.865 8.05176C213.588 8.05161 214.075 7.25013 214.075 6.17676C214.075 5.12758 213.58 4.3107 212.865 4.31055ZM219.365 4.15723C218.87 4.15744 218.328 4.53446 218.328 5.43945H220.356C220.356 4.53421 219.845 4.15723 219.365 4.15723ZM209.234 1.62598L207.262 2.05859V0.424805L209.234 0V1.62598Z" fill="white"/>
<path d="M156.774 10.7179H151.48V1.2832H156.774V10.7179Z" fill="white"/>
<path d="M151.821 6C151.821 4.08621 152.724 2.38146 154.131 1.28285C153.102 0.479496 151.804 -9.53674e-07 150.393 -9.53674e-07C147.052 -9.53674e-07 144.344 2.68625 144.344 6C144.344 9.31375 147.052 12 150.393 12C151.804 12 153.102 11.5205 154.131 10.7171C152.724 9.61854 151.821 7.91379 151.821 6Z" fill="white"/>
<path d="M163.913 6C163.913 9.31375 161.205 12 157.864 12C156.453 12 155.154 11.5205 154.125 10.7171C155.532 9.61854 156.436 7.91379 156.436 6C156.436 4.08621 155.532 2.38146 154.125 1.28285C155.154 0.479496 156.453 -9.53674e-07 157.864 -9.53674e-07C161.205 -9.53674e-07 163.913 2.68625 163.913 6Z" fill="white"/>
</svg>
