<svg width="127" height="171" viewBox="0 0 127 171" fill="none" xmlns="http://www.w3.org/2000/svg">
<path d="M107.375 113.645C107.967 114.073 108.522 114.406 109.077 114.739C119.701 138.921 123.58 158.598 123.592 158.918C123.697 159.203 123.485 159.5 123.202 159.607L123.106 159.643C122.788 159.654 122.528 159.535 122.422 159.251C122.434 158.704 118.4 138.327 107.375 113.645ZM54.7833 45.1024C54.9961 44.8059 55.3153 44.7937 55.5752 44.9128C71.0152 55.6843 83.3237 69.9114 92.8658 84.5299C92.6058 85.2786 92.7582 85.9799 92.9117 86.6812C83.2874 71.5511 70.8024 56.8487 54.9368 45.8038C54.6769 45.6847 54.5354 45.3054 54.7833 45.1024Z" fill="#933115"/>
<path d="M57.6883 47.6938L57.8552 46.9815C57.8068 46.5659 63.2852 10.0349 24.9995 0.166521L24.291 0L24.349 0.736576C25.3103 18.3682 50.99 44.4704 57.004 47.3012L57.6883 47.6938ZM25.4953 1.49746C58.8297 10.5199 57.3377 40.6721 56.8275 45.9593C49.9986 41.8085 27.142 17.7872 25.4953 1.49746Z" fill="#933115"/>
<path d="M52.1224 50.1151C55.6215 48.7975 57.5476 47.3134 57.5476 47.3134C57.7966 47.1117 57.8789 46.7555 57.6782 46.5064C57.4774 46.256 57.1232 46.1733 56.8753 46.3751C56.6262 46.5769 35.5713 62.4144 1.76043 35.0372C11.0051 28.3047 41.6118 34.3444 48.1095 39.9197C48.3102 40.1689 48.7237 40.1215 48.9365 39.8249C49.1843 39.6232 49.1372 39.2075 48.8422 38.9935C41.8488 32.9539 9.50582 26.5933 0.495724 34.5376L0 34.9412L0.495724 35.4043C25.2687 55.8874 43.5161 53.3543 52.1224 50.1151Z" fill="#933115"/>
<path d="M15.009 32.1091C15.1033 32.0726 15.1976 32.0374 15.2568 31.9073C15.4708 31.6095 15.3644 31.3239 15.0682 31.1112C15.0332 31.0152 8.5706 26.4024 7.77503 11.5275C18.5552 7.47029 26.8979 10.1832 27.0273 10.2428C27.0991 10.2718 27.1763 10.2848 27.2536 10.2808C27.3309 10.2769 27.4065 10.2561 27.475 10.2199C27.5435 10.1837 27.6034 10.133 27.6505 10.0713C27.6977 10.0095 27.7309 9.93825 27.7479 9.86234C27.7768 9.79021 27.7897 9.71265 27.7859 9.63501C27.782 9.55736 27.7614 9.48148 27.7256 9.41261C27.6897 9.34373 27.6394 9.2835 27.5781 9.23608C27.5168 9.18865 27.4461 9.15516 27.3706 9.13791C27.0164 9.05405 18.3787 6.1272 6.97098 10.5296L6.59375 10.6718L6.6409 11.0875C7.34217 26.8655 14.2291 31.7517 14.5241 31.9657C14.5955 32.1565 14.8204 32.1796 15.009 32.1091ZM57.2169 46.1368L57.1455 45.9472C54.2498 22.5409 38.4688 10.2732 38.3032 10.1176C38.1738 10.058 38.0783 10.0933 37.984 10.1297C37.9247 10.2598 37.8655 10.3898 37.9961 10.4494C38.1605 10.605 53.6489 22.6588 56.6281 45.7102C42.8687 48.7197 26.3732 45.8244 17.8769 41.5436C17.8076 41.5176 17.7312 41.5177 17.6619 41.5438C17.5926 41.5699 17.535 41.6203 17.4997 41.6858C17.4735 41.7556 17.4734 41.8327 17.4994 41.9027C17.5254 41.9726 17.5758 42.0307 17.6412 42.0662C26.3018 46.5027 43.0222 49.421 56.934 46.2438L57.2169 46.1368Z" fill="#933115"/>
<path d="M56.5569 46.3859L56.4142 46.0055C53.0759 37.6175 38.2888 18.469 38.0869 18.2211C38.0506 18.1263 37.827 18.102 37.7327 18.1372C37.6371 18.1737 37.6142 18.3985 37.6492 18.4946C37.8499 18.7437 52.1643 37.2006 55.8 45.8062C45.9677 44.3026 36.7751 41.0427 31.2096 39.1271C29.6257 38.6397 28.3623 38.1402 27.5231 37.9141C27.4536 37.8878 27.377 37.8877 27.3074 37.9138C27.2378 37.94 27.18 37.9906 27.1447 38.0563C27.1185 38.1262 27.1184 38.2033 27.1444 38.2732C27.1705 38.3432 27.2208 38.4013 27.2862 38.4368C28.1253 38.6628 29.39 39.1624 30.9739 39.6498C36.763 41.5897 46.1805 44.8739 56.1071 46.3397L56.5569 46.3884V46.3859Z" fill="#933115"/>
<path d="M46.2324 37.4827C46.3267 37.4462 46.3267 37.4463 46.386 37.3162C46.4121 37.2462 46.412 37.169 46.3857 37.099C46.3595 37.0291 46.3089 36.971 46.2433 36.9358C34.1331 30.7636 14.9836 15.535 14.7225 15.4159C14.5931 15.3563 14.4637 15.2967 14.4045 15.428C14.344 15.5593 14.286 15.6893 14.4166 15.7489C14.581 15.9033 33.8611 31.1914 45.9713 37.3636C46.1369 37.518 46.2324 37.4827 46.2324 37.4827ZM42.5338 33.3465L42.6293 33.31C42.6886 33.18 42.7466 33.0499 42.581 32.8955C32.1635 22.2918 22.6541 13.8406 22.5235 13.7811C22.3941 13.7203 22.2635 13.6619 22.2043 13.7932C22.145 13.9233 22.087 14.0533 22.2164 14.1129C22.347 14.1737 31.7609 22.6601 42.2751 33.2274C42.2968 33.2751 42.3349 33.3134 42.3824 33.3353C42.4299 33.3572 42.4837 33.3611 42.5338 33.3465ZM35.6433 34.5303C35.7388 34.4951 35.7388 34.4951 35.798 34.365C35.8241 34.295 35.824 34.2178 35.7978 34.1479C35.7715 34.0779 35.7209 34.0199 35.6553 33.9846C35.526 33.9238 23.012 29.8556 18.6073 25.5529C18.4767 25.4921 18.3461 25.4338 18.2869 25.565C18.2276 25.6951 18.1684 25.8251 18.2989 25.8847C22.7399 30.2835 34.994 34.2338 35.5139 34.472C35.5139 34.472 35.5502 34.5668 35.6433 34.5303ZM109.278 116.723L109.539 115.107C116.808 65.4373 108.264 38.7371 99.715 25.046L99.1722 24.1672L98.7574 25.0813C85.6848 53.0906 88.9252 76.2598 94.0215 90.8163C99.5446 106.514 108.286 115.797 108.416 115.856L109.278 116.723ZM99.2894 26.5082C107.52 40.2102 115.472 66.4826 108.452 114.215C106.184 111.601 99.582 103.139 95.0613 90.4237C90.1052 76.2477 86.8903 53.7202 99.2894 26.5082Z" fill="#933115"/>
<path d="M108.534 114.726C108.818 114.62 108.996 114.227 108.89 113.942C97.7576 87.2404 100.526 35.0384 100.539 34.4926C100.526 34.1718 100.326 33.9214 100.007 33.9335C99.6873 33.9457 99.4383 34.1475 99.4503 34.4683C99.4383 35.0153 96.5522 87.4786 107.789 114.464C107.896 114.75 108.251 114.833 108.534 114.726Z" fill="#933115"/>
<path d="M108.369 114.571L108.439 113.894C109.669 90.5623 105.078 53.9195 105.031 53.5038C104.994 53.409 104.83 53.2546 104.736 53.2899C104.64 53.3251 104.486 53.4917 104.523 53.5865C104.57 54.0022 109.102 89.9083 107.967 113.205C105.203 109.26 89.6619 85.1935 96.0894 43.103C96.1487 42.973 95.983 42.8186 95.8887 42.8539C95.7581 42.7943 95.6046 42.9608 95.6396 43.0556C88.5266 89.0891 107.767 113.823 107.967 114.073L108.369 114.571ZM8.08139 60.4052C37.9736 52.9471 59.9511 60.7164 73.1132 68.5525C83.5343 74.8183 90.3148 82.0212 93.1247 85.5144L94.2226 88.4619L93.774 88.4133C44.0674 86.0978 19.5749 72.4457 7.89156 61.3436L7.09961 60.6654L8.08018 60.4052H8.08139ZM93.219 87.2149C91.1044 84.4339 84.1956 76.3036 72.5691 69.4082C59.7032 61.7848 38.375 54.3133 9.35818 61.2257C21.2181 71.9352 45.2378 84.8982 93.219 87.2149Z" fill="#933115"/>
<path d="M93.4918 87.6536C93.5861 87.6196 93.6804 87.5831 93.7396 87.4531C93.9524 87.1565 93.846 86.8696 93.551 86.6569C69.4733 70.3563 17.6653 62.976 17.1816 62.8337C17.0347 62.8403 16.8925 62.8883 16.7713 62.9721C16.6502 63.0559 16.5548 63.1722 16.4961 63.3078C16.5027 63.4555 16.5503 63.5984 16.6337 63.7202C16.7171 63.8421 16.8328 63.9379 16.9676 63.9969C17.5117 64.0091 69.0006 71.4016 92.9126 87.5479C93.1726 87.6658 93.3019 87.7241 93.4918 87.6536Z" fill="#933115"/>
<path d="M93.5374 87.2038L93.136 86.7042C92.9353 86.4538 72.5489 62.695 26.2096 60.7345C26.0802 60.6749 25.9266 60.8414 25.9617 60.9362C25.9025 61.0675 26.0681 61.2219 26.1624 61.1866C68.4356 62.9418 88.9417 82.9715 92.2026 86.5134C69.2638 83.1161 35.0443 71.7175 34.6901 71.6336C34.6206 71.6073 34.5439 71.6072 34.4743 71.6333C34.4047 71.6595 34.3469 71.7101 34.3116 71.7758C34.2855 71.8457 34.2854 71.9228 34.3114 71.9927C34.3374 72.0627 34.3877 72.1208 34.4531 72.1562C34.8086 72.2401 69.6786 83.9354 92.6741 87.2038H93.5374ZM126.504 170.504L126.304 169.387C126.269 169.292 124.467 156.637 115.457 142.578C107.19 129.648 91.0781 112.733 61.0167 105.839L59.9527 105.589L60.3069 106.541C65.8421 121.69 81.5481 145.044 125.004 169.659L126.504 170.504ZM61.7361 107.195C112.726 119.326 123.437 160.819 124.957 168.375C83.1913 144.534 67.5203 122.144 61.7361 107.195Z" fill="#933115"/>
<path d="M125.323 168.78C125.666 168.543 125.785 168.282 125.679 167.996C111.332 142.505 68.4465 112.472 68.0209 112.199C67.7259 111.985 67.4418 112.092 67.229 112.388C67.0162 112.686 67.1226 112.971 67.4176 113.185C67.8432 113.458 110.564 143.337 124.709 168.578C124.78 168.768 125.04 168.887 125.323 168.78Z" fill="#933115"/>
<path d="M125.313 168.459L125.194 167.853C125.088 167.568 117.528 137.138 77.0499 114.438C76.9205 114.378 76.825 114.413 76.6714 114.58C76.6122 114.71 76.6472 114.806 76.8129 114.96C113.735 135.639 123.129 162.886 124.509 167.461C105.489 154.027 80.0798 128.363 79.8791 128.113C79.7497 128.053 79.6192 127.995 79.5599 128.125C79.5007 128.256 79.4426 128.386 79.572 128.446C79.7727 128.695 105.807 154.881 124.887 168.186L125.313 168.459ZM91.6604 83.9001C91.9446 83.7931 92.1223 83.4017 92.0159 83.1149C91.9095 82.8305 80.5538 53.5036 79.8307 36.216C79.8187 35.8951 79.5236 35.6812 79.2044 35.6934C78.8852 35.7055 78.6724 36.0021 78.6845 36.323C79.4789 53.8002 90.8685 83.2219 90.9749 83.5075C91.1163 83.8867 91.3763 84.0058 91.6604 83.9001Z" fill="#933115"/>
<path d="M75.3736 37.5689C75.5501 38.0434 75.8179 38.4784 76.1617 38.8488C76.5055 39.2192 76.9186 39.5179 77.3773 39.7277C77.836 39.9376 78.3313 40.0545 78.835 40.0718C79.3387 40.0891 79.8408 40.0064 80.3127 39.8285C80.7848 39.6511 81.2176 39.382 81.5862 39.0364C81.9548 38.6908 82.252 38.2756 82.4609 37.8145C82.6698 37.3533 82.7862 36.8553 82.8034 36.3489C82.8207 35.8426 82.7385 35.3377 82.5616 34.8633C82.3852 34.3885 82.1174 33.9533 81.7736 33.5827C81.4297 33.212 81.0165 32.9131 80.5577 32.7032C80.0988 32.4932 79.6033 32.3762 79.0994 32.3589C78.5956 32.3417 78.0933 32.4244 77.6213 32.6025C77.1491 32.7799 76.7163 33.0492 76.3477 33.3949C75.9791 33.7406 75.682 34.156 75.4732 34.6173C75.2645 35.0785 75.1482 35.5766 75.1311 36.0831C75.114 36.5896 75.1964 37.0945 75.3736 37.5689ZM121.962 156.28C122.245 156.173 122.363 155.912 122.351 155.591C122.246 155.305 115.358 126.682 85.8491 100.72C85.6484 100.469 85.2349 100.517 85.0221 100.815C84.773 101.016 84.8201 101.432 85.1164 101.646C114.425 127.358 121.17 155.602 121.276 155.888C121.287 156.208 121.547 156.328 121.962 156.28C121.866 156.315 121.866 156.315 121.962 156.28Z" fill="#933115"/>
<path d="M89.0074 98.7727C90.1645 100.722 89.5841 103.216 87.6798 104.474C85.7416 105.638 83.2594 105.054 82.0092 103.141C80.8509 101.193 81.4312 98.6973 83.3343 97.4393C85.2737 96.2761 87.8491 96.8231 89.0074 98.7727Z" fill="#933115"/>
</svg>
