<svg width="170" height="170" viewBox="0 0 170 170" fill="none" xmlns="http://www.w3.org/2000/svg">
<rect y="20.876" width="150" height="150" rx="75" transform="rotate(-8 0 20.876)" fill="#FFE600"/>
<path d="M77 74.876L92.5556 84.876L77 94.876V74.876Z" fill="black" stroke="black" stroke-width="1.5" stroke-linecap="round" stroke-linejoin="round"/>
<path d="M24.3445 98.8014C23.7822 98.8996 23.2646 98.8379 22.7836 98.627C22.3027 98.4161 21.8987 98.0696 21.573 97.5969C21.2473 97.1241 21.0226 96.5507 20.9098 95.8848C20.7997 95.2377 20.8145 94.6595 20.9622 94.1394C21.11 93.6193 21.3678 93.199 21.7424 92.8582C22.117 92.5175 22.5936 92.2873 23.164 92.1783L23.4574 93.8559C23.0471 93.9424 22.7494 94.1475 22.5739 94.4698C22.3889 94.7935 22.3382 95.1847 22.4246 95.6623C22.5162 96.1776 22.7063 96.5734 22.984 96.8416C23.2712 97.1085 23.6125 97.2142 24.0161 97.1479C24.3538 97.0908 24.6123 96.9489 24.7728 96.7246C24.9334 96.5004 25.0323 96.1793 25.0601 95.7624L25.1376 94.1959C25.1718 93.3461 25.3657 92.6755 25.7218 92.203C26.0779 91.7304 26.6111 91.425 27.3335 91.3043C27.9147 91.2034 28.4605 91.2611 28.9603 91.4693C29.4601 91.6776 29.8748 92.0322 30.2019 92.5144C30.5396 93.0046 30.7575 93.5982 30.8863 94.3098C31.0004 94.9852 30.9896 95.5917 30.8458 96.14C30.7021 96.6883 30.4482 97.1369 30.0762 97.4965C29.7043 97.856 29.2371 98.0849 28.668 98.2033L28.3746 96.5257C28.7769 96.45 29.0638 96.2368 29.2448 95.8849C29.4258 95.533 29.4698 95.0947 29.3756 94.5606C29.2773 93.9982 29.0833 93.5742 28.7935 93.2884C28.5036 93.0027 28.1704 92.8863 27.787 92.9594C27.4587 93.0151 27.2083 93.1463 27.037 93.3625C26.8738 93.5678 26.783 93.8783 26.7727 94.283L26.6965 95.8589C26.661 96.6993 26.4483 97.3726 26.0666 97.868C25.6849 98.3633 25.0858 98.678 24.3445 98.8014Z" fill="black"/>
<path d="M21.8424 90.4151L20.2743 90.4627L20.0598 83.0605L21.6279 83.013L21.8424 90.4151ZM20.9558 85.8825L29.8695 85.6284L29.9168 87.331L21.003 87.5851L20.9558 85.8825Z" fill="black"/>
<path d="M26.203 72.1237C27.1817 72.2551 28.0134 72.5703 28.7089 73.0775C29.4043 73.5847 29.9139 74.2045 30.2417 74.965C30.5694 75.7256 30.6684 76.5663 30.5398 77.4966C30.4181 78.4067 30.0962 79.1913 29.5717 79.8316C29.0484 80.4813 28.3938 80.9478 27.589 81.2337C26.7841 81.5197 25.9018 81.5957 24.9231 81.4644C23.9336 81.3249 23.1019 81.0097 22.3984 80.5132C21.7043 80.0154 21.1934 79.3863 20.8656 78.6257C20.5379 77.8652 20.4389 77.0245 20.5688 76.1036C20.6986 75.1827 21.0204 74.3981 21.5356 73.7591C22.0508 73.1202 22.7148 72.6524 23.5183 72.357C24.3218 72.0616 25.2136 71.9843 26.203 72.1237ZM25.961 73.8862C25.2754 73.7905 24.6661 73.8281 24.1332 73.999C23.6002 74.17 23.1599 74.4527 22.8308 74.8446C22.4924 75.2379 22.2842 75.7377 22.2048 76.3346C22.1242 76.9221 22.1888 77.4507 22.4097 77.9286C22.6305 78.4065 22.9725 78.7905 23.4384 79.0996C23.9044 79.4086 24.4795 79.6062 25.1651 79.7019C25.8507 79.7976 26.46 79.76 27.0023 79.5877C27.5447 79.4155 27.9756 79.1341 28.3047 78.7421C28.6337 78.3502 28.8419 77.8504 28.9226 77.2629C29.0019 76.666 28.9359 76.128 28.7164 75.6595C28.497 75.191 28.1549 74.807 27.6796 74.4993C27.2123 74.1808 26.6372 73.9832 25.961 73.8862Z" fill="black"/>
<path d="M22.7177 66.7945L31.994 69.7351L31.4834 71.3624L22.207 68.4218L22.7177 66.7945ZM29.4513 66.6739L28.6792 69.1062L27.2319 68.6471L27.8983 66.5561C28.0785 65.993 28.0701 65.5237 27.8733 65.1481C27.6845 64.7617 27.3301 64.4946 26.8275 64.3348C26.3155 64.1763 25.8865 64.1982 25.5216 64.4031C25.1567 64.608 24.8923 64.9813 24.7189 65.5242L24.001 67.7952L22.5537 67.336L23.3705 64.7438C23.571 64.1203 23.8653 63.618 24.2629 63.2357C24.6618 62.8627 25.1263 62.615 25.6577 62.5019C26.1892 62.3888 26.7619 62.4331 27.3747 62.6255C27.9673 62.811 28.4508 63.108 28.8331 63.5056C29.2155 63.9031 29.4646 64.3771 29.5777 64.9085C29.6853 65.4695 29.6423 66.0517 29.4513 66.6739Z" fill="black"/>
<path d="M36.5998 58.295L26.8418 55.4797L27.7945 53.9919L32.9565 55.4654C33.2266 55.5427 33.4981 55.6293 33.791 55.7322C34.0839 55.8351 34.4198 55.9703 34.8175 56.1353C34.4968 55.8347 34.2298 55.5745 34.0259 55.3535C33.822 55.1325 33.6288 54.9196 33.4437 54.6959L29.9525 50.6254L30.9687 49.0422L36.1077 50.5574C36.3872 50.6333 36.6694 50.7281 36.9624 50.831C37.2553 50.9338 37.5993 51.0583 37.9849 51.2058C37.6521 50.8877 37.3838 50.6181 37.1799 50.3971C36.976 50.1761 36.7935 49.9713 36.6326 49.7826L33.1361 45.6745L34.074 44.2175L40.6647 51.9623L39.7753 53.3548L32.6944 51.2771L37.508 56.8998L36.5998 58.295Z" fill="black"/>
<path d="M37.2295 41.0472L44.4874 47.5267L43.3508 48.8003L36.093 42.3208L37.2295 41.0472Z" fill="black"/>
<path d="M40.8505 41.0566C40.4736 40.6294 40.2447 40.1622 40.1719 39.6443C40.0991 39.1264 40.1689 38.5981 40.392 38.0674C40.6151 37.5367 40.9779 37.044 41.4806 36.5893C41.9657 36.1466 42.472 35.8546 42.978 35.6971C43.4947 35.5476 43.9923 35.5353 44.4815 35.6682C44.9707 35.8011 45.4139 36.0845 45.819 36.5077L44.5577 37.6452C44.2666 37.35 43.9388 37.204 43.5663 37.218C43.1937 37.2319 42.8329 37.3979 42.4758 37.7265C42.0837 38.0793 41.8569 38.4473 41.7767 38.833C41.6965 39.2188 41.802 39.5593 42.0756 39.8665C42.3036 40.1225 42.5629 40.2589 42.8345 40.2784C43.1061 40.2978 43.429 40.2044 43.8047 40.0076L45.1754 39.2388C45.912 38.8088 46.5767 38.6194 47.1697 38.6705C47.7613 38.7122 48.3025 39.0106 48.7908 39.5469C49.1892 39.9902 49.4302 40.4749 49.515 41.0103C49.5999 41.5457 49.5301 42.0741 49.2895 42.6168C49.0583 43.1583 48.6698 43.6738 48.1416 44.1513C47.639 44.606 47.1071 44.9209 46.5741 45.0918C46.0318 45.264 45.5167 45.2884 45.0194 45.1663C44.5221 45.0441 44.0709 44.7714 43.667 44.3577L44.9377 43.2188C45.2195 43.5153 45.5554 43.6506 45.9428 43.6057C46.3315 43.5703 46.7354 43.3695 47.1356 43.006C47.5533 42.6304 47.8151 42.2383 47.9034 41.8418C47.9917 41.4453 47.9051 41.1022 47.6435 40.8124C47.4168 40.5658 47.167 40.4281 46.9035 40.3979C46.64 40.3677 46.3264 40.4598 45.9817 40.6715L44.6029 41.451C43.8744 41.8703 43.1895 42.053 42.567 41.9964C41.9243 41.9331 41.3522 41.6198 40.8505 41.0566Z" fill="black"/>
<path d="M53.226 39.8165L51.7998 40.7372L46.5131 32.5691L47.938 31.639L50.1331 35.0275L53.7505 32.685L51.5554 29.2966L52.9816 28.3759L58.2683 36.544L56.8326 37.466L54.588 33.9981L50.9706 36.3405L53.226 39.8165Z" fill="black"/>
<path d="M57.5379 26.1514L61.7662 34.9195L60.2288 35.6637L56.0005 26.8956L57.5379 26.1514Z" fill="black"/>
<path d="M65.2888 33.4063L63.7048 33.9554L60.5385 24.7499L62.1414 24.1981L69.4188 29.7915L68.9518 29.9531L66.4562 22.7179L68.0402 22.1688L71.2064 31.3743L69.6224 31.9234L62.3383 26.3502L62.8053 26.1886L65.2888 33.4063Z" fill="black"/>
<path d="M76.1837 22.1C75.5528 22.1886 75.0278 22.4161 74.6263 22.7702C74.2153 23.1256 73.9332 23.5781 73.7693 24.1197C73.6066 24.6707 73.5783 25.2892 73.6776 25.9955C73.7782 26.7111 73.9947 27.2953 74.3178 27.7492C74.6421 28.2125 75.0516 28.5295 75.5393 28.7202C76.027 28.9109 76.5716 28.9592 77.1554 28.8772C77.5885 28.8163 77.9572 28.7069 78.2709 28.5475C78.5846 28.3882 78.8352 28.1898 79.0402 27.9401C79.2357 27.6918 79.3776 27.403 79.4577 27.0844C79.5364 26.7565 79.5547 26.4082 79.5018 26.0316L79.3826 25.1841L80.2861 25.8733L76.5868 26.4028L76.3683 24.9164L80.8479 24.2676L81.6276 29.6794L80.2071 29.8887L79.838 28.3561L80.0636 28.5261C79.9634 28.8378 79.7825 29.1225 79.5143 29.4003C79.2447 29.6686 78.9134 29.9072 78.5162 30.0879C78.1204 30.2779 77.6871 30.4061 77.1975 30.4749C76.3029 30.6006 75.4841 30.514 74.7304 30.207C73.9767 29.9001 73.3592 29.4011 72.8605 28.7222C72.3618 28.0433 72.0423 27.2048 71.902 26.2066C71.7644 25.2273 71.8417 24.3426 72.1313 23.5337C72.4209 22.7248 72.9025 22.0522 73.5667 21.5171C74.2309 20.9821 75.0386 20.6477 75.9977 20.5033C76.7322 20.4001 77.4193 20.4379 78.059 20.6169C78.6893 20.7972 79.2413 21.1037 79.6949 21.5297C80.1484 21.9557 80.4646 22.497 80.642 23.1442L78.8636 23.4038C78.6322 22.8505 78.2726 22.4786 77.7836 22.2784C77.2945 22.0783 76.7675 22.0179 76.1837 22.1Z" fill="black"/>
<path d="M87.0787 26.9256L87.1841 25.4896L91.4625 25.8006L91.3571 27.2366L87.0787 26.9256Z" fill="black"/>
<path d="M97.953 24.0147C98.0968 23.4663 98.3708 23.0245 98.7737 22.6798C99.1671 22.3365 99.6545 22.1143 100.217 22.0161C100.779 21.9179 101.39 21.9569 102.058 22.1319C102.687 22.3028 103.213 22.5648 103.617 22.9114C104.021 23.2579 104.301 23.6794 104.455 24.1572C104.599 24.6363 104.615 25.1621 104.475 25.7387L102.828 25.2885C102.924 24.8812 102.855 24.5261 102.65 24.2284C102.435 23.9321 102.097 23.7107 101.639 23.5927C101.129 23.453 100.698 23.4561 100.334 23.6032C99.9708 23.7503 99.7295 24.0147 99.6223 24.4138C99.5342 24.7431 99.5564 25.0377 99.6863 25.2787C99.8162 25.5197 100.068 25.7435 100.432 25.942L101.823 26.6781C102.579 27.0711 103.104 27.5255 103.378 28.0439C103.662 28.5609 103.701 29.1796 103.511 29.8784C103.352 30.4577 103.081 30.9183 102.681 31.2818C102.281 31.6454 101.784 31.8688 101.203 31.9697C100.62 32.0612 99.9803 32.0167 99.2922 31.8349C98.6336 31.6586 98.0856 31.3803 97.652 31.0284C97.2184 30.6764 96.9169 30.2387 96.7526 29.7528C96.5882 29.267 96.572 28.7411 96.705 28.1847L98.3514 28.6255C98.2536 29.0233 98.3228 29.3785 98.5668 29.6803C98.8109 29.9821 99.1896 30.2169 99.7178 30.3539C100.266 30.4977 100.729 30.5095 101.112 30.3692C101.496 30.2289 101.738 29.9739 101.839 29.5949C101.927 29.2657 101.907 28.9899 101.796 28.7463C101.676 28.5039 101.436 28.2976 101.074 28.118L99.6748 27.3832C98.9293 26.9983 98.4019 26.5251 98.1113 25.9609C97.8208 25.3968 97.7483 24.7444 97.953 24.0147Z" fill="black"/>
<path d="M111.106 26.391L107.581 34.5875L106.017 33.9143L109.542 25.7178L111.106 26.391ZM106.63 25.2916L107.253 23.8501L114.05 26.7743L113.427 28.2158L106.63 25.2916Z" fill="black"/>
<path d="M111.984 36.7345L110.489 35.8018L118.615 29.3976L120.099 30.3221L117.939 40.4394L116.414 39.4919L116.941 37.1613L113.857 35.242L111.984 36.7345ZM117.647 32.2127L115.039 34.2885L117.291 35.6909L118.004 32.4314C118.044 32.301 118.082 32.1613 118.112 32.0322C118.14 31.8938 118.182 31.7823 118.228 31.699C118.17 31.7648 118.085 31.8439 117.975 31.9459C117.861 32.029 117.75 32.1215 117.647 32.2127Z" fill="black"/>
<path d="M120.105 42.3151L118.824 41.1987L125.226 33.8653L128.027 36.3044C128.859 37.0325 129.331 37.792 129.444 38.6018C129.558 39.4116 129.301 40.1776 128.671 40.8902C128.241 41.3828 127.767 41.6991 127.25 41.8485C126.724 41.9993 126.164 41.9725 125.579 41.7761L124.348 46.0013L122.947 44.7771L124.091 40.9578L122.515 39.5853L120.105 42.3151ZM125.504 36.1212L123.478 38.4417L124.989 39.7657C125.395 40.1216 125.803 40.2947 126.214 40.2849C126.626 40.275 126.984 40.0903 127.306 39.7185C127.629 39.3467 127.759 38.9732 127.703 38.5777C127.647 38.1822 127.412 37.8024 127.006 37.4465L125.504 36.1212Z" fill="black"/>
<path d="M134.546 44.2317L127.731 49.9907L126.636 48.6851L133.45 42.9261L134.546 44.2317ZM131.034 41.2397L132.236 40.2257L137.016 45.882L135.814 46.8959L131.034 41.2397Z" fill="black"/>
<path d="M133.927 59.3657L132.327 56.2489L140.989 51.8052L142.548 54.8413C142.985 55.6921 143.19 56.5371 143.154 57.3775C143.119 58.2179 142.871 58.9826 142.412 59.6808C141.953 60.3791 141.285 60.9531 140.426 61.4003C139.585 61.8354 138.74 62.0406 137.901 62.0145C137.062 61.9884 136.298 61.75 135.611 61.2993C134.914 60.8499 134.352 60.1991 133.927 59.3657ZM141.06 53.6773L133.787 57.4074L134.124 56.3229L135.246 58.4986C135.538 59.0722 135.916 59.5087 136.371 59.8096C136.826 60.1106 137.326 60.2515 137.874 60.2514C138.421 60.2513 138.994 60.094 139.595 59.7887C140.213 59.4714 140.677 59.0892 140.997 58.6314C141.317 58.1735 141.488 57.679 141.506 57.129C141.525 56.5791 141.377 56.0045 141.072 55.4041L139.999 53.3078L141.06 53.6773Z" fill="black"/>
<path d="M143.849 72.0292C142.909 72.3149 142.015 72.3734 141.167 72.2141C140.328 72.0535 139.596 71.6955 138.98 71.1387C138.364 70.5819 137.926 69.8561 137.656 68.9625C137.388 68.0784 137.356 67.2378 137.56 66.4314C137.763 65.625 138.164 64.9253 138.772 64.3309C139.38 63.7366 140.153 63.2919 141.102 63.0049C142.05 62.7179 142.943 62.65 143.792 62.8093C144.64 62.9686 145.363 63.3279 145.977 63.8753C146.592 64.4227 147.03 65.1485 147.3 66.042C147.569 66.9356 147.601 67.7761 147.397 68.5825C147.194 69.389 146.791 70.0793 146.185 70.683C145.58 71.2962 144.807 71.7409 143.849 72.0292ZM143.339 70.3148C144.002 70.116 144.538 69.8294 144.955 69.4444C145.372 69.0688 145.648 68.6364 145.789 68.1365C145.93 67.6365 145.912 67.1013 145.735 66.5213C145.558 65.9507 145.274 65.5009 144.881 65.1624C144.488 64.824 144.007 64.6131 143.457 64.5272C142.907 64.4412 142.292 64.5084 141.638 64.7059C140.975 64.9048 140.43 65.1927 140.013 65.5777C139.597 65.9627 139.322 66.3951 139.181 66.895C139.049 67.3936 139.067 67.9289 139.233 68.5008C139.411 69.0808 139.695 69.5306 140.088 69.869C140.481 70.2075 140.961 70.4089 141.52 70.4936C142.08 70.5782 142.677 70.5231 143.339 70.3148Z" fill="black"/>
<path d="M149.19 75.1103L139.593 76.7183L139.309 75.0394L148.906 73.4313L149.19 75.1103Z" fill="black"/>
<path d="M140.075 80.5011L140.012 78.82L149.733 78.4332L149.797 80.1238L142.35 85.482L142.33 84.9951L149.979 84.6978L150.041 86.3695L140.319 86.7468L140.257 85.0751L147.694 79.7089L147.714 80.1957L140.075 80.5011Z" fill="black"/>
<path d="M147.822 94.2098C147.914 93.5725 147.846 93.0157 147.624 92.5283C147.402 92.041 147.047 91.6395 146.571 91.3224C146.095 91.0147 145.499 90.8008 144.802 90.6971C144.097 90.5946 143.469 90.6349 142.937 90.8152C142.405 90.9955 141.977 91.2958 141.661 91.7147C141.336 92.1348 141.138 92.6333 141.047 93.2221C140.983 93.6536 140.98 94.0382 141.048 94.384C141.106 94.7311 141.234 95.0299 141.415 95.2926C141.596 95.5552 141.828 95.7722 142.121 95.9423C142.414 96.1124 142.747 96.2289 143.12 96.2821L143.962 96.4037L143.049 97.0794L143.585 93.3744L145.076 93.597L144.419 98.0777L139.006 97.2827L139.21 95.8618L140.787 95.9474L140.561 96.1136C140.295 95.9301 140.067 95.6741 139.885 95.3348C139.703 94.9955 139.572 94.6106 139.512 94.1869C139.442 93.755 139.444 93.2938 139.521 92.8125C139.655 91.9199 139.97 91.1554 140.477 90.5272C140.984 89.899 141.64 89.4419 142.435 89.1573C143.23 88.8727 144.124 88.8048 145.114 88.9536C146.085 89.0957 146.927 89.419 147.613 89.9275C148.309 90.4347 148.813 91.0841 149.135 91.8742C149.458 92.6643 149.551 93.5346 149.417 94.4944C149.309 95.2298 149.074 95.8774 148.72 96.4361C148.367 96.9947 147.919 97.4321 147.376 97.7388C146.835 98.0549 146.232 98.2069 145.559 98.1959L145.818 96.4214C146.414 96.3569 146.871 96.1199 147.206 95.7078C147.542 95.2957 147.74 94.7878 147.822 94.2098Z" fill="black"/>
</svg>
